<mxfile host="app.diagrams.net" modified="2023-10-26T11:18:03.557Z" agent="Mozilla/5.0 (Windows NT 10.0; Win64; x64; rv:109.0) Gecko/20100101 Firefox/118.0" etag="dgWNJdmfqpnzaEPKGvVC" version="22.0.8" type="device">
  <diagram name="Page-1" id="sAOJ5SrDfzlhlrvFXXsP">
    <mxGraphModel dx="808" dy="408" grid="1" gridSize="10" guides="1" tooltips="1" connect="1" arrows="1" fold="1" page="1" pageScale="1" pageWidth="850" pageHeight="1100" math="0" shadow="0">
      <root>
        <mxCell id="0" />
        <mxCell id="1" parent="0" />
        <mxCell id="nBLHbdXHp7UiOyoCYOLu-15" value="Header" style="rounded=1;whiteSpace=wrap;html=1;fillColor=#dae8fc;strokeColor=#6c8ebf;" parent="1" vertex="1">
          <mxGeometry x="130" y="40" width="230" height="50" as="geometry" />
        </mxCell>
        <mxCell id="nBLHbdXHp7UiOyoCYOLu-23" value="Brand Products" style="rounded=1;whiteSpace=wrap;html=1;fillColor=#dae8fc;strokeColor=#6c8ebf;" parent="1" vertex="1">
          <mxGeometry x="240" y="230" width="120" height="100" as="geometry" />
        </mxCell>
        <mxCell id="nBLHbdXHp7UiOyoCYOLu-28" value="&lt;div&gt;Footer&lt;br&gt;&lt;/div&gt;" style="rounded=1;whiteSpace=wrap;html=1;fillColor=#dae8fc;strokeColor=#6c8ebf;" parent="1" vertex="1">
          <mxGeometry x="130" y="350" width="230" height="50" as="geometry" />
        </mxCell>
        <mxCell id="r9LU1n8cO8k18PTNaj-M-1" value="Sort Options" style="rounded=1;whiteSpace=wrap;html=1;fillColor=#dae8fc;strokeColor=#6c8ebf;" vertex="1" parent="1">
          <mxGeometry x="130" y="290" width="100" height="40" as="geometry" />
        </mxCell>
        <mxCell id="r9LU1n8cO8k18PTNaj-M-3" value="Filter Options" style="rounded=1;whiteSpace=wrap;html=1;fillColor=#dae8fc;strokeColor=#6c8ebf;" vertex="1" parent="1">
          <mxGeometry x="130" y="230" width="100" height="40" as="geometry" />
        </mxCell>
        <mxCell id="r9LU1n8cO8k18PTNaj-M-29" value="Brand Description" style="rounded=1;whiteSpace=wrap;html=1;fillColor=#dae8fc;strokeColor=#6c8ebf;" vertex="1" parent="1">
          <mxGeometry x="130" y="160" width="230" height="50" as="geometry" />
        </mxCell>
        <mxCell id="r9LU1n8cO8k18PTNaj-M-30" value="Brand Logo" style="rounded=1;whiteSpace=wrap;html=1;fillColor=#dae8fc;strokeColor=#6c8ebf;" vertex="1" parent="1">
          <mxGeometry x="130" y="100" width="230" height="50" as="geometry" />
        </mxCell>
      </root>
    </mxGraphModel>
  </diagram>
</mxfile>
